
Cover:
 
http://ia.media-imdb.com/images/M/MV5BMTczOTQ3MjI3NV5BMl5BanBnXkFtZTcwMDE3NDc0OA@@._V1._SY317_CR7,0,214,317_.jpg

Release info:

General
Format                                   : Matroska
Format version                           : Version 2
File size                                : 683 MiB
Duration                                 : 1h 32mn
Overall bit rate                         : 1 035 Kbps


Video
ID                                       : 1
Format                                   : MPEG-4 Visual
Format profile                           : Advanced Simple@L5
Format settings, BVOP                    : Yes
Format settings, QPel                    : No
Format settings, GMC                     : No warppoints
Format settings, Matrix                  : Default (H.263)
Codec ID                                 : V_MS/VFW/FOURCC / XVID
Codec ID/Hint                            : XviD
Duration                                 : 1h 32mn
Bit rate                                 : 887 Kbps
Width                                    : 624 pixels
Height                                   : 352 pixels
Display aspect ratio                     : 16:9
Frame rate mode                          : Constant
Frame rate                               : 25.000 fps
Color space                              : YUV
Chroma subsampling                       : 4:2:0
Bit depth                                : 8 bits
Scan type                                : Progressive
Compression mode                         : Lossy
Bits/(Pixel*Frame)                       : 0.161
Stream size                              : 585 MiB (86%)
Language                                 : English
Default                                  : Yes
Forced                                   : No

Audio
ID                                       : 2
Format                                   : MPEG Audio
Format version                           : Version 1
Format profile                           : Layer 3
Mode                                     : Joint stereo
Muxing mode                              : Header stripping
Codec ID                                 : A_MPEG/L3
Codec ID/Hint                            : MP3
Duration                                 : 1h 32mn
Bit rate mode                            : Constant
Bit rate                                 : 128 Kbps
Channel(s)                               : 2 channels
Sampling rate                            : 44.1 KHz
Compression mode                         : Lossy
Stream size                              : 84.5 MiB (12%)
Language                                 : English
Default                                  : Yes
Forced                                   : No

Source:
credit to original movie ripper DvF (Thanks)

IMDB Info:

The English town of Kingsbridge works to survive as the King leads the nation into the Hundred Years' War with France while Europe deals with the outbreak of the Black Death.

Writer: Ken Follett (novel)
Stars: Ben Chaplin, Charlotte Riley and Nora von Waldstätten

Genres: Drama | History | Romance | Thriller
 
http://www.imdb.com/title/tt1878805/

Screen Shot:
 
http://www.shotpix.com/images/42186198564983768624.png 
http://www.shotpix.com/images/81156814375468899490.png 
http://www.shotpix.com/images/67288163945623246302.png 
http://www.shotpix.com/images/98689379893925183170.png 
http://www.shotpix.com/images/00492055537868958964.png 
http://www.shotpix.com/images/74024557752268392463.png 
http://www.shotpix.com/images/27850400539517299834.png 
http://www.shotpix.com/images/96866703159339482469.png